<mxfile host="app.diagrams.net" modified="2024-09-26T07:23:19.200Z" agent="Mozilla/5.0 (Windows NT 10.0; Win64; x64) AppleWebKit/537.36 (KHTML, like Gecko) Chrome/129.0.0.0 Safari/537.36 Edg/129.0.0.0" version="24.7.1" etag="I_M9HuJO3xwXOyPNgs4w" type="github">
  <diagram name="第 1 页" id="rO9rKtJyF8ni1TbzW90n">
    <mxGraphModel>
      <root>
        <mxCell id="0" />
        <mxCell id="1" parent="0" />
      </root>
    </mxGraphModel>
  </diagram>
</mxfile>
